HIERARCHY
ROOT pelvis
{
  OFFSET 0 100 0
  CHANNELS 6 Xposition Yposition Zposition Zrotation Xrotation Yrotation
  JOINT pelvis_right_femur
  {
    OFFSET -10.78128 -3.44521 -0.5502486
    CHANNELS 3 Zrotation Xrotation Yrotation
    JOINT right_femur_tibia
    {
      OFFSET -0.8047443 -44.0398 -0.1307829
      CHANNELS 3 Zrotation Xrotation Yrotation
      JOINT right_tibia_foot
      {
        OFFSET 3.006224 -47.83518 -5
        CHANNELS 3 Zrotation Xrotation Yrotation
        End Site
        {
          OFFSET 0 -5 15
        }
      }
    }
  }
  JOINT pelvis_left_femur
  {
    OFFSET 10.78128 -3.44521 -0.5502486
    CHANNELS 3 Zrotation Xrotation Yrotation
    JOINT left_femur_tibia
    {
      OFFSET 0.8047443 -44.0398 -0.1307829
      CHANNELS 3 Zrotation Xrotation Yrotation
      JOINT left_tibia_foot
      {
        OFFSET -4.370144 -48.10324 -4.275266
        CHANNELS 3 Zrotation Xrotation Yrotation
        End Site
        {
          OFFSET 0 -5 15
        }
      }
    }
  }
  JOINT pelvis_spine1
  {
    OFFSET 0 6.468898 -3.129235
    CHANNELS 3 Zrotation Xrotation Yrotation
    JOINT spine1
    {
      OFFSET 0 23.15396 4.99043
      CHANNELS 3 Zrotation Xrotation Yrotation
      JOINT spine2
      {
        OFFSET 0 20.79997 -5.064912
        CHANNELS 3 Zrotation Xrotation Yrotation
        JOINT neck
        {
          OFFSET 0 14.38658 9.616178
          CHANNELS 3 Zrotation Xrotation Yrotation
          End Site
          {
            OFFSET 0 20 0
          }
        }
      }
      JOINT right_manubrium
      {
        OFFSET -5.722621 16.35077 3.967754
        CHANNELS 3 Zrotation Xrotation Yrotation
        JOINT right_clavicle
        {
          OFFSET -13.16364 1.694482 -4.693211
          CHANNELS 3 Zrotation Xrotation Yrotation
          JOINT right_humerus
          {
            OFFSET -28.5034 -0.3100689 -2.792744
            CHANNELS 3 Zrotation Xrotation Yrotation
            JOINT right_radius
            {
              OFFSET -25.15693 0.02248979 -1.271978
              CHANNELS 3 Zrotation Xrotation Yrotation
              End Site
              {
                OFFSET -15 0 0
              }
            }
          }
        }
      }
      JOINT left_manubrium
      {
        OFFSET 5.722621 16.35077 3.967754
        CHANNELS 3 Zrotation Xrotation Yrotation
        JOINT left_clavicle
        {
          OFFSET 13.16364 1.694482 -4.693211
          CHANNELS 3 Zrotation Xrotation Yrotation
          JOINT left_humerus
          {
            OFFSET 29.39168 -1.063119 -2.237045
            CHANNELS 3 Zrotation Xrotation Yrotation
            JOINT left_radius
            {
              OFFSET 24.59957 -0.9528479 0.9047498
              CHANNELS 3 Zrotation Xrotation Yrotation
              End Site
              {
                OFFSET 15 -0 -0
              }
            }
          }
        }
      }
    }
  }
}
MOTION
Frames: 23
Frame Time: 0.0416666666667
0 103.5113 0 1.399645 -2.006653 -0.00209208 2.867327 -13.53324 9.002586 -0 36.82381 -0 -5.065186 -16.96698 -5.533329 -6.928081 12.7541 -24.57899 -0 5.450935 -0 0.5858212 -20.91986 24.13012 -4.271969 -3.26284 3.748834 2.727599 7.947914 -8.124369 0.5323875 23.37038 7.732225 3.573149 -23.36891 8.541989 6.574906 -19.42483 11.48982 86.6257 35.35651 -22.10205 -0 0 15.72347 -7.429748 7.633139 4.958973 3.849808 -18.65914 -3.179497 -101.5674 41.08975 29.65797 0 0 -18.89525 -12.35186 15.31936 28.62988
0.1265861 103.3326 1.081589 1.213323 -1.680133 -0.03473971 3.180152 -14.66699 9.176221 -0 36.69521 -0 -4.952668 -17.01549 -5.459648 -6.874746 12.92399 -24.68291 -0 5.175969 -0 0.9994437 -21.01795 24.30669 -4.15099 -3.174822 3.760717 2.711005 7.85524 -8.071049 0.6762763 23.23574 7.740418 3.464419 -23.60852 8.882495 6.44865 -19.36157 11.40415 86.76318 35.62455 -21.97592 -0 0 15.673 -7.14498 7.879483 4.811307 4.022376 -18.62939 -2.848714 -100.8936 40.51267 29.01559 0 0 -19.22439 -11.17639 15.71597 27.40529
0.2528114 102.788 3.193613 0.1762203 -0.1724967 0.07791721 3.988791 -23.17032 6.318365 -0 28.4588 -0 -5.726592 -11.65988 -4.447022 -5.940799 14.34806 -21.84046 -0 5.111369 -0 -1.261342 -23.6066 20.13149 -3.313471 -1.835494 3.143214 2.881208 7.68247 -8.452776 0.7971716 22.28955 8.103324 4.014359 -24.43404 8.90478 5.447845 -18.57728 11.14523 87.58388 34.1996 -22.77547 -0 0 14.18814 -8.757137 8.157188 5.481294 5.256125 -20.21502 -2.832489 -96.50595 38.10842 24.2929 0 0 -22.86679 -8.038724 15.3391 23.94218
0.3607347 102.1187 5.608699 -0.1050492 0.7506751 0.2881314 4.430783 -26.02835 5.983217 -0 25.20543 -0 -5.76307 -10.21652 -4.318061 -5.684018 14.76735 -21.29591 -0 5.525173 -0 -2.769585 -24.70655 18.56122 -3.06742 -1.383742 3.11367 2.965696 7.35893 -8.581947 0.8556157 21.85422 8.242703 4.322758 -24.85295 8.868399 5.475451 -18.23804 11.00967 87.59746 34.28004 -23.23402 -0 0 14.05397 -8.595384 8.087018 5.461553 5.580386 -20.51525 -2.690335 -96.28963 38.48945 23.95524 0 0 -23.91954 -8.429855 14.6223 24.75785
0.4666193 101.4731 8.481962 -0.7823179 2.243018 0.6422401 5.59264 -30.11469 6.063473 -0 22.54601 -0 -5.700681 -8.565779 -3.826224 -5.292806 15.28067 -20.92062 -0 6.469584 -0 -3.96571 -25.41671 17.04654 -2.498683 -0.7954231 2.997522 2.988253 6.88681 -8.543324 1.043198 21.21978 8.545235 4.569807 -25.65933 9.385472 5.632795 -17.63869 10.84587 87.59361 35.33011 -23.25974 -0 0 13.7443 -8.134052 8.83578 5.276667 6.126663 -20.64438 -2.052542 -95.38888 37.71782 22.92103 0 0 -24.95789 -6.795851 14.66359 23.36926
0.5750671 100.8256 11.74524 -1.277966 3.294145 1.096839 6.424492 -32.61044 6.075311 -0 20.66101 -0 -5.801712 -7.078881 -3.447874 -4.947289 15.49074 -20.46392 -0 7.779424 -0 -5.276018 -25.58883 15.54432 -2.019303 -0.3750337 2.873899 2.994596 6.564474 -8.511378 1.119163 20.76481 8.749826 4.801127 -26.1921 9.59332 5.873507 -17.15965 10.77677 87.48359 36.07279 -23.25764 -0 0 13.46979 -7.983651 9.364868 5.308741 6.396721 -20.70296 -1.728795 -94.89513 37.24896 22.36288 0 0 -25.48288 -5.985332 14.47657 22.81299
0.6977678 100.2378 15.49382 -1.885159 4.111831 1.636525 7.288694 -34.55348 5.855067 -0 19.37546 -0 -6.087378 -5.514982 -2.896975 -4.532954 15.66451 -19.69821 -0 10.00893 -0 -6.274979 -24.9799 14.04242 -1.399302 -0.02461095 2.605423 2.980532 6.379589 -8.447537 1.147817 20.39555 8.951749 4.927143 -26.62678 9.830571 6.019152 -16.59867 10.76677 87.449 36.723 -23.03901 -0 0 12.86807 -8.257231 10.21607 5.509545 6.624872 -20.76744 -1.460493 -93.81548 35.81647 21.17236 0 0 -25.75818 -4.129775 14.64491 20.80863
0.8387119 99.72329 19.73402 -2.393446 4.524742 2.19216 7.885171 -35.34238 5.419415 -0 18.42602 -0 -6.548212 -4.1866 -2.458505 -4.123119 15.69873 -18.69613 -0 13.0419 -0 -7.165983 -23.76672 12.59291 -0.7976754 0.168055 2.31075 2.968329 6.339354 -8.421857 1.107816 20.17683 9.035581 4.960648 -26.81849 9.85208 6.059896 -16.0895 10.80164 87.48963 36.9455 -22.85998 -0 0 12.13587 -8.858396 10.92829 5.872341 6.664959 -20.83914 -1.406712 -92.74017 34.21823 19.99429 0 0 -25.74337 -2.451997 14.71798 18.83437
1.003706 99.34728 24.50179 -2.855915 4.582651 2.706845 8.382564 -35.01476 4.848974 -0 17.80115 -0 -7.155902 -3.102554 -2.089619 -3.716536 15.5247 -17.42533 -0 17.36517 -0 -7.798869 -21.77691 11.29101 -0.1388911 0.1891671 2.02406 2.955503 6.478616 -8.429026 1.007749 20.06814 9.024291 4.869757 -26.84479 9.744796 5.939159 -15.65139 10.89269 87.71116 36.79076 -22.73696 -0 0 11.24919 -9.76181 11.61985 6.365728 6.537149 -20.92952 -1.501876 -91.63901 32.1874 18.84075 0 0 -25.47627 -0.6179103 14.75175 16.52366
1.191294 99.17945 29.78489 -3.200114 4.255743 3.105893 8.757142 -33.38332 4.302714 -0 17.47992 -0 -7.869776 -2.492828 -1.946473 -3.342492 15.00737 -15.96681 -0 23.03814 -0 -8.176501 -19.06383 10.24194 0.5201185 0.02676985 1.835265 2.95135 6.795407 -8.487609 0.8691951 20.07904 8.861765 4.630458 -26.70142 9.474703 5.631428 -15.36349 11.02819 88.1561 36.19626 -22.76057 -0 0 10.30968 -10.80267 12.11103 6.9363 6.167969 -21.00726 -1.744581 -90.7111 30.06925 17.99991 0 0 -24.98338 0.9439645 14.59497 14.47606
1.394325 99.32033 35.53652 -3.407614 3.541784 3.312806 9.074276 -30.33195 3.94621 -0 17.47723 -0 -8.637733 -2.526089 -2.086559 -3.027499 13.90213 -14.36581 -0 30.38222 -0 -8.207568 -15.57925 9.56803 1.162462 -0.2920775 1.840454 2.960568 7.318842 -8.590639 0.7146652 20.1979 8.534199 4.219912 -26.43499 9.085034 5.110663 -15.29648 11.21734 88.86838 35.22493 -22.93392 -0 0 9.381176 -11.83855 12.37981 7.521035 5.524157 -21.05179 -2.088911 -90.00687 27.95222 17.63008 0 0 -24.31119 2.198969 14.19616 12.82895
1.599893 99.87644 41.62713 -3.434424 2.506618 3.261909 9.303242 -25.97434 3.941323 -0 17.72665 -0 -9.33372 -3.387323 -2.523169 -2.821072 11.86996 -12.79715 -0 39.25916 -0 -7.904765 -11.57223 9.371508 1.681943 -0.6291714 2.153422 2.983916 8.005798 -8.686323 0.5859541 20.41322 8.064564 3.682965 -26.0948 8.643367 4.481292 -15.47492 11.45808 89.70645 34.19284 -23.13785 -0 0 8.602111 -12.61413 12.43018 8.007199 4.63043 -21.00619 -2.445352 -89.6014 26.17538 17.87005 0 0 -23.52952 3.018044 13.51021 11.87547
1.795752 100.9127 47.83318 -3.211318 1.261098 2.922202 9.281856 -20.61655 4.252128 -0 17.93772 -0 -9.799501 -5.040863 -3.078332 -2.777231 8.422809 -11.46252 -0 49.08736 -0 -7.41886 -7.561028 9.664142 1.914837 -0.7337413 2.872772 2.978885 8.76341 -8.634599 0.5282696 20.72179 7.53911 3.158912 -25.69361 8.224576 3.98337 -15.85366 11.76041 90.32499 33.65165 -23.07328 -0 0 8.138662 -13.0093 12.42069 8.335504 3.619508 -20.82444 -2.723595 -89.54031 25.07726 18.72753 0 0 -22.71955 3.372451 12.60547 11.75687
1.976187 102.3547 53.86236 -2.610394 -0.06263938 2.338797 8.684144 -14.75895 4.514747 -0 17.51037 -0 -9.869766 -7.141517 -3.388232 -2.91556 3.15836 -10.52922 -0 58.22009 -0 -7.056614 -4.45763 10.33978 1.625706 -0.3224836 3.991049 2.838998 9.39676 -8.208539 0.5824721 21.1688 7.078232 2.8707 -25.11602 7.85153 3.955125 -16.26718 12.11777 90.13875 34.20186 -22.23386 -0 0 8.128037 -13.24155 12.61522 8.600624 2.757842 -20.47655 -2.869781 -89.80016 24.91071 19.92058 0 0 -21.92687 3.260169 11.75767 12.40957
2.144736 103.9096 59.46525 -1.533717 -1.327564 1.665764 7.27482 -8.785462 4.160226 -0 15.74988 -0 -9.472408 -9.137104 -3.098795 -3.1282 -3.882738 -9.913249 -0 64.00681 -0 -7.039757 -3.116544 11.21625 0.6826057 0.6176652 5.338192 2.451366 9.699042 -7.258222 0.7283159 21.8051 6.759146 2.956055 -24.19552 7.452583 4.5187 -16.58364 12.48525 88.62061 35.86778 -20.11177 -0 0 8.63301 -13.96195 13.17117 9.147077 2.338043 -19.99261 -2.885896 -90.2335 25.46297 20.9825 0 0 -21.17592 2.727958 11.33473 13.44889
2.313259 105.1305 64.58514 -0.1626825 -2.29643 1.118538 5.371852 -2.947647 2.952174 -0 12.51126 -0 -8.731074 -10.70059 -2.204572 -3.08426 -11.76419 -9.172828 -0 63.82296 -0 -7.211108 -3.602036 12.16465 -0.6710481 1.612316 6.582858 1.864971 9.614772 -6.00193 0.8257517 22.5297 6.578858 3.28034 -23.00988 6.932744 5.27656 -16.92171 12.76781 85.8472 37.67611 -16.73279 -0 0 9.701067 -15.70667 13.81676 10.32695 2.501381 -19.51096 -2.758426 -90.59741 25.95797 21.60335 0 0 -20.53914 2.019185 11.39187 14.18097
2.503646 105.6512 69.39549 0.9328159 -2.673392 0.806846 3.910466 2.348622 1.428685 -0 8.662484 -0 -7.925272 -12.08086 -1.116998 -2.314699 -18.92862 -7.766159 -0 57.12994 -0 -7.128695 -4.924167 13.26196 -1.794464 2.06002 7.378471 1.325085 9.343774 -4.997997 0.7042208 23.03057 6.489186 3.501745 -22.00347 6.335479 5.542605 -17.61788 12.89074 82.77313 38.36734 -12.98971 -0 0 11.44684 -18.11176 13.97435 12.00403 3.107319 -19.20982 -2.437219 -90.79578 25.66398 21.95832 0 0 -20.0366 1.619025 11.4698 13.9939
2.740083 105.3453 74.16024 1.225362 -2.4953 0.653509 3.588388 6.679093 0.4215164 -0 5.518537 -0 -7.233093 -13.8552 -0.3244506 -0.6289063 -24.21593 -5.61885 -0 46.01736 -0 -6.587748 -5.947416 14.71933 -2.162109 1.87755 7.58878 1.007192 9.117964 -4.575085 0.4002085 23.10458 6.404987 3.380457 -21.46678 5.852185 4.980799 -18.80242 12.8248 80.41299 37.53328 -9.771011 -0 0 13.88205 -20.20303 13.37378 13.57736 3.824839 -19.05173 -1.966941 -90.99509 24.6648 22.4076 0 0 -19.32165 1.778488 11.10424 12.96067
3.043149 104.3015 79.0989 0.7305795 -2.162657 0.498099 4.160439 10.09656 0.2744431 -0 3.892147 -0 -6.619102 -16.17209 -0.006304477 1.5307 -27.48812 -3.324522 -0 33.66793 -0 -5.852393 -6.233676 16.47669 -1.796024 1.432571 7.41426 0.8560503 8.985645 -4.5535 0.1507045 22.85627 6.229784 2.961472 -21.23603 5.616358 3.800747 -20.25593 12.56081 79.02839 35.60857 -7.217666 -0 0 16.73777 -21.47005 12.20377 14.64824 4.339042 -18.78334 -1.53109 -91.38324 23.65081 23.14155 0 0 -17.97424 2.136575 10.23828 11.93395
3.445302 102.7553 84.38845 -0.02529079 -2.081542 0.1912224 4.75303 13.02009 0.804261 -0 4.101717 -0 -5.876891 -18.23466 -0.03379517 3.256698 -29.13841 -1.711901 -0 23.16647 -0 -5.299138 -6.024442 18.1345 -1.16675 1.015686 7.250682 0.7101303 8.918439 -4.560836 0.175657 22.50277 5.91929 2.481834 -20.98114 5.604366 2.461518 -21.60967 12.1277 78.42955 33.15065 -5.249402 -0 0 19.53824 -22.14879 10.82321 15.22674 4.502589 -18.21262 -1.313807 -91.96635 23.12528 24.14357 0 0 -15.98114 2.115942 9.065412 11.77924
4.003829 101.0382 90.18737 -0.4225101 -2.434428 -0.312632 4.589677 15.76481 1.699435 -0 6.498883 -0 -4.688173 -18.71558 -0.2029497 3.738128 -29.53391 -1.281477 -0 16.73673 -0 -5.02465 -5.823428 19.27205 -0.8219998 0.6342447 7.423049 0.4515197 8.949175 -4.364449 0.526707 22.16232 5.525778 2.155581 -20.54384 5.733349 1.37578 -22.56735 11.62923 78.41912 30.52716 -3.998685 -0 0 21.83919 -22.77577 9.660036 15.48518 4.349547 -17.3453 -1.372738 -92.61691 23.06268 25.32203 0 0 -13.74795 1.439782 7.773864 12.71832
4.772908 99.51662 96.57733 -0.1625649 -3.138703 -0.8827869 3.469749 18.15109 2.702765 -0 11.43628 -0 -2.913438 -16.82448 -0.4364267 2.778126 -28.87124 -1.9609 -0 14.89157 -0 -4.864354 -6.00775 19.69105 -1.057091 0.1781314 7.95485 0.06554517 9.120023 -3.979842 1.058407 21.85823 5.203615 2.063717 -20.00146 5.951089 0.8247478 -22.97418 11.22085 78.7953 28.19297 -3.611964 -0 0 23.31588 -23.72245 9.168246 15.57639 4.013805 -16.3769 -1.638801 -93.13477 23.16304 26.48549 0 0 -11.83377 0.2951932 6.583735 14.28924
5.756551 98.50114 103.4858 0.6172192 -4.002842 -1.287304 1.784366 19.5808 3.617907 -0 18.8121 -0 -0.7961975 -12.95337 -0.8700806 0.8419454 -27.20584 -3.289209 -0 16.39522 -0 -4.662047 -6.670576 19.51805 -1.786542 -0.360455 8.56636 -0.3874497 9.400014 -3.575093 1.558879 21.61998 5.095373 2.161688 -19.46214 6.238257 0.9048122 -22.80583 11.00081 79.3504 26.65317 -4.012524 -0 0 23.82039 -24.97133 9.564743 15.57708 3.638281 -15.56189 -2.00416 -93.34542 23.22858 27.30573 0 0 -10.54605 -0.9146667 5.775256 15.82529
